<svg width="120" height="120" viewBox="0 0 120 120" xmlns="http://www.w3.org/2000/svg" xmlns:xlink="http://www.w3.org/1999/xlink"><g id="HOME" stroke="none" stroke-width="1" fill="none" fill-rule="evenodd"><g id="Renaissance---Home---Desktop" transform="translate(-810.000000, -1580.000000)"><g id="SERVICES" transform="translate(260.000000, 1115.000000)"><g id="Core-Services" transform="translate(550.000000, 3.000000)"><g id="media-icon" transform="translate(0.000000, 462.000000)"><circle id="Oval" stroke="#60ad58" stroke-width="4" cx="60" cy="60" r="58"></circle><path d="M70.6640625 36C73.5718359 36 75.9375 38.3656641 75.9375 41.2734375v31.640625c0 2.9077734-2.3656641 5.2734375-5.2733203 5.2734375-2.6403516.0-4.8335156-1.9507031-5.2146094-4.4864063L63.8460937 72.0976172C61.0551562 69.3067969 56.9451562 67.640625 52.8515625 67.640625H51.09375v8.7890625c0 2.9077734-2.3656641 5.2734375-5.2733203 5.2734375-2.9077735.0-5.2735547-2.3656641-5.2735547-5.2734375V67.3382812C39.0510937 66.8077734 37.8641016 65.6207812 37.3335937 64.125H37.03125C33.1542187 64.125 30 60.9707813 30 57.09375s3.1542187-7.03125 7.03125-7.03125H37.3335937C38.0592187 48.0165234 40.0130859 46.546875 42.3046875 46.546875h10.546875c4.0937109.0 8.2037109-1.6661719 10.9945312-4.4569922L65.4495703 40.4864063C65.8306641 37.9505859 68.0237109 36 70.6640625 36zM47.578125 67.640625H44.0625v8.7890625C44.0625 77.3989453 44.8510547 78.1875 45.8203125 78.1875S47.578125 77.3989453 47.578125 76.4296875V67.640625zm23.0860547-28.125C69.6948047 39.515625 68.90625 40.3041797 68.90625 41.2734375v31.640625C68.90625 73.8833203 69.6948047 74.671875 70.6640625 74.671875L70.8081204 74.6660368C71.7102044 74.5925678 72.421875 73.8348574 72.421875 72.9140625V41.2734375C72.421875 40.3041797 71.6333203 39.515625 70.6641797 39.515625zm9.3038672 25.1242969C80.6545312 63.9535547 81.7675781 63.9535547 82.4539453 64.6399219l3.515625 3.515625C86.6560547 68.8420312 86.6560547 69.9549609 85.9695703 70.6414453 85.2832031 71.3279297 84.1700391 71.3279297 83.4836719 70.6414453l-3.515625-3.515625C79.2814453 66.4393359 79.2814453 65.3262891 79.9680469 64.6399219zM65.390625 45.4515234c-2.9696484 2.5702735-6.7877344 4.1671875-10.7928516 4.5311719L54.5976562 64.2046875C58.6028906 64.5687891 62.4209766 66.1657031 65.390625 68.7358594zM51.09375 50.0625H42.3046875C41.3354297 50.0625 40.546875 50.8510547 40.546875 51.8203125v10.546875C40.546875 63.3364453 41.3354297 64.125 42.3046875 64.125H51.09375V50.0625zm37.1484375 7.03125C89.2129687 57.09375 90 57.8807812 90 58.8515625 90 59.8223437 89.2129687 60.609375 88.2421875 60.609375H82.96875C81.9979687 60.609375 81.2109375 59.8223437 81.2109375 58.8515625 81.2109375 57.8807812 81.9979687 57.09375 82.96875 57.09375zM37.03125 53.578125c-1.9385156.0-3.515625 1.5771094-3.515625 3.515625s1.5771094 3.515625 3.515625 3.515625zm46.4523047-6.5163281C84.1700391 46.3754297 85.2830859 46.3754297 85.9694531 47.0617969 86.6559375 47.7482812 86.6559375 48.8612109 85.9694531 49.5476953l-3.515625 3.515625C81.7674609 53.7496875 80.6544141 53.7498047 79.9679297 53.0633203s-.686484399999998-1.7994141.0-2.4858984z" id="Combined-Shape" fill="#000" fill-rule="nonzero"></path></g></g></g></g></g></svg>