<svg width="120" height="120" viewBox="0 0 120 120" xmlns="http://www.w3.org/2000/svg" xmlns:xlink="http://www.w3.org/1999/xlink"><g id="bg" stroke="none" stroke-width="1" fill="none" fill-rule="evenodd"><g transform="translate(-810.000000, -1720.000000)"><g transform="translate(260.000000, 1115.000000)"><g transform="translate(550.000000, 3.000000)"><g transform="translate(0.000000, 602.000000)"><circle id="Oval" stroke="#60ad58" stroke-width="4" cx="60" cy="60" r="58"></circle><path d="M60.0566396 41.5737004c4.2633402.0 8.27168710000001 1.6579147 11.2898714 4.6705955C74.3724919 49.2638561 76.0386617 53.2813754 76.0386617 57.556181 76.0386617 61.4636313 74.6128093 65.2252401 72.0238942 68.1480314 70.2820518 70.1150565 69.3226168 72.603075 69.3226168 75.1539247V87.5H50.7897453V75.103935C50.7897453 72.5787681 49.8367309 70.1155151 48.105437 68.167752 45.5110183 65.2477126 44.0792039 61.487021 44.0736855 57.5781949 44.0617762 48.7699213 51.2176386 41.5906694 60.0249948 41.5737004zm5.7501893 37.7050608H54.3055332V83.9846705H65.8068289V79.2787612zM60.0318742 45.0894611C53.1617327 45.1023298 47.5798574 50.7025499 47.5894759 57.57315 47.5936159 60.6220619 48.7098993 63.5554014 50.7333349 65.8319956 53.0369878 68.4241211 54.3055332 71.7170194 54.3055332 75.103935V75.7629732h3.9647779V62.5579008C56.2230273 61.831904 54.7522301 59.8768029 54.7522301 57.5836983c0-2.9090326 2.3664839-5.2759751 5.2759751-5.2759751 2.9094912.0 5.2764337 2.3669425 5.2764337 5.2759751.0 2.2931046-1.4707973 4.2486643-3.5185397 4.9742025V75.7629732h4.0207297v-.6090485C65.8068289 71.7431609 67.0799606 68.4273315 69.3923272 65.8168612 71.4111766 63.5379738 72.5228737 60.6041758 72.5228737 57.556181c0-3.3346327-1.29973170000001-6.4683895-3.6602537-8.8238666C66.5030154 46.3768373 63.3701758 45.082609 60.0318742 45.0894611zM41.2848266 66.3956407l1.757894 3.0447844L34.9187094 74.1307413 33.1608154 71.0864157 41.2848266 66.3956407zM78.8559701 66.3484029 86.9799811 71.0387191 85.2220871 74.0835034 77.0980761 69.3927285 78.8559701 66.3484029zM60.0286638 55.8230525c-.970900499999999.0-1.7606458.7897453-1.7606458 1.7606458s.7897453 1.7606458 1.7606458 1.7606458C60.9995643 59.3443441 61.7893096 58.5545988 61.7893096 57.5836983S60.9995643 55.8230525 60.0286638 55.8230525zM39.3810911 55.8258043v3.515788H30v-3.515788h9.3810911zM90.1123621 55.7707698V59.2860992H80.731271V55.7707698H90.1123621zM34.8916507 41.0293173l8.1240112 4.6903163-1.757894 3.0447843-8.1240111-4.6907749L34.8916507 41.0293173zM85.193194 40.9807035 86.9506294 44.0250292 78.8266183 48.7158041 77.0687244 45.6710197 85.193194 40.9807035zM46.5264051 30.661274 51.21718 38.7852852l-3.0447844 1.757894-4.6903162-8.1240111L46.5264051 30.661274zM73.5391777 30.6342154l3.0443257 1.7578941L71.8927285 40.5161205 68.8484029 38.7586851l4.6907748-8.1244697zM61.7865578 27.5v9.3810911h-3.515788V27.5h3.515788z" id="Combined-Shape" fill="#000" fill-rule="nonzero"></path></g></g></g></g></g></svg>